# xmcd
#
# Track frame offsets:
#	150
#	13680
#	24592
#	37340
#	45005
#	54957
#	59827
#	72712
#	84057
#	95207
#	106325
#	118265
#	129342
#	141482
#	152002
#	163462
#	173837
#	185350
#	196397
#	208215
#	221145
#	234152
#	245640
#	258927
#	270322
#	282187
#
# Disc length: 3905 seconds
#
# Revision: 1
# Processed by: cddbd v1.5PL3 Copyright (c) Steve Scherf et al.
# Submitted via: dBpowerAMP V4.0
#
DISCID=860f3f1a
DTITLE=Teddy Wilson - Solo piano "The Keystone Transcriptions" c. 1939-40
DYEAR=1997
DGENRE=blues
TTITLE0=A Ghost Of A Chance
TTITLE1=Sunday
TTITLE2=More Than You Know
TTITLE3=Summer´s End
TTITLE4=Goin´ Home Blues
TTITLE5=Minute Steak
TTITLE6=Sugar
TTITLE7=At Sundown
TTITLE8=Tuesday Jump
TTITLE9=The Moon Is Low
TTITLE10=Afthernoon Blues
TTITLE11=The Little Things That Mean So Much
TTITLE12=You´re My Favorite Memory
TTITLE13=Rythmatics 
TTITLE14=Almost Blues
TTITLE15=Tempo Positioned
TTITLE16=Out Of Nowhere
TTITLE17=Night And Day
TTITLE18=Lady Be Good
TTITLE19=Jumpin´ Off
TTITLE20=You´ll Be Sorry
TTITLE21=Chinatown, My Chinatown
TTITLE22=Twilight Blue
TTITLE23=Love Is The Sweetest Thing
TTITLE24=Rose Room
TTITLE25=Why Shouldn´t I
EXTD=
EXTT0=
EXTT1=
EXTT2=
EXTT3=
EXTT4=
EXTT5=
EXTT6=
EXTT7=
EXTT8=
EXTT9=
EXTT10=
EXTT11=
EXTT12=
EXTT13=
EXTT14=
EXTT15=
EXTT16=
EXTT17=
EXTT18=
EXTT19=
EXTT20=
EXTT21=
EXTT22=
EXTT23=
EXTT24=
EXTT25=
PLAYORDER=
